PathFileType	4	(X/Y/Z)	S240501-1155_P07_T01_0-394.trc
DataRate	CameraRate	NumFrames	NumMarkers	Units	OrigDataRate	OrigDataStartFrame	OrigNumFrames
60.0	60.0	24	13	m	60.0	344	394
Frame#	Time	Nose			LEye			LEar			LShoulder			LElbow			LWrist			LHip			REye			REar			RShoulder			RElbow			RWrist			RHip		
		X1	Y1	Z1	X2	Y2	Z2	X3	Y3	Z3	X4	Y4	Z4	X5	Y5	Z5	X6	Y6	Z6	X7	Y7	Z7	X8	Y8	Z8	X9	Y9	Z9	X10	Y10	Z10	X11	Y11	Z11	X12	Y12	Z12	X13	Y13	Z13

345	5.750	-0.06165	1.70052	0.16997	-0.08948	1.66499	0.19137	-0.06739	1.60246	0.27814	0.10928	1.51917	0.25768	0.26210	1.54215	0.06547	0.30885	1.61984	-0.15146	0.53366	1.60220	0.21426	-0.08772	1.73189	0.19324	-0.06397	1.76309	0.29733	0.10739	1.84383	0.32143	0.33046	1.92910	0.26990	0.32110	1.90257	0.03765	0.52496	1.81811	0.21622
346	5.767	-0.06152	1.70118	0.16912	-0.08955	1.66546	0.19049	-0.06736	1.60285	0.27789	0.10930	1.51933	0.25756	0.26146	1.54298	0.06471	0.30993	1.61931	-0.15193	0.53366	1.60220	0.21426	-0.08746	1.73216	0.19273	-0.06380	1.76321	0.29626	0.10750	1.84409	0.32151	0.33068	1.92941	0.26974	0.32119	1.90247	0.03719	0.52496	1.81811	0.21622
347	5.783	-0.06131	1.70180	0.16823	-0.08950	1.66594	0.18981	-0.06745	1.60326	0.27717	0.10923	1.51954	0.25729	0.26089	1.54369	0.06379	0.31096	1.61903	-0.15284	0.53366	1.60220	0.21426	-0.08725	1.73227	0.19250	-0.06345	1.76326	0.29534	0.10755	1.84437	0.32174	0.33081	1.92981	0.26965	0.32136	1.90254	0.03661	0.52496	1.81811	0.21622
348	5.800	-0.06102	1.70228	0.16743	-0.08932	1.66646	0.18932	-0.06756	1.60370	0.27611	0.10903	1.51991	0.25683	0.26047	1.54412	0.06276	0.31187	1.61896	-0.15426	0.53366	1.60220	0.21426	-0.08711	1.73228	0.19254	-0.06303	1.76323	0.29457	0.10756	1.84473	0.32208	0.33095	1.93032	0.26961	0.32158	1.90270	0.03607	0.52496	1.81811	0.21622
349	5.817	-0.06070	1.70258	0.16677	-0.08906	1.66703	0.18895	-0.06765	1.60408	0.27479	0.10872	1.52049	0.25623	0.26026	1.54418	0.06179	0.31266	1.61898	-0.15601	0.53366	1.60220	0.21426	-0.08698	1.73227	0.19274	-0.06265	1.76321	0.29393	0.10754	1.84515	0.32247	0.33114	1.93086	0.26961	0.32177	1.90280	0.03574	0.52496	1.81811	0.21622
350	5.833	-0.06046	1.70267	0.16621	-0.08880	1.66760	0.18859	-0.06774	1.60426	0.27330	0.10837	1.52121	0.25552	0.26030	1.54394	0.06103	0.31333	1.61903	-0.15782	0.53366	1.60220	0.21426	-0.08680	1.73233	0.19292	-0.06241	1.76332	0.29337	0.10754	1.84554	0.32284	0.33137	1.93133	0.26959	0.32189	1.90274	0.03568	0.52496	1.81811	0.21622
351	5.850	-0.06034	1.70255	0.16569	-0.08860	1.66814	0.18823	-0.06787	1.60425	0.27189	0.10807	1.52194	0.25474	0.26047	1.54364	0.06050	0.31385	1.61914	-0.15941	0.53366	1.60220	0.21426	-0.08649	1.73247	0.19292	-0.06233	1.76361	0.29285	0.10759	1.84573	0.32310	0.33161	1.93162	0.26945	0.32194	1.90249	0.03583	0.52496	1.81811	0.21622
352	5.867	-0.06031	1.70231	0.16521	-0.08847	1.66862	0.18785	-0.06801	1.60418	0.27083	0.10787	1.52249	0.25388	0.26065	1.54349	0.06011	0.31418	1.61936	-0.16065	0.53366	1.60220	0.21426	-0.08605	1.73269	0.19260	-0.06236	1.76405	0.29236	0.10776	1.84566	0.32322	0.33180	1.93170	0.26912	0.32196	1.90211	0.03608	0.52496	1.81811	0.21622
353	5.883	-0.06030	1.70214	0.16480	-0.08840	1.66904	0.18738	-0.06814	1.60418	0.27021	0.10776	1.52276	0.25291	0.26071	1.54369	0.05978	0.31436	1.61966	-0.16147	0.53366	1.60220	0.21426	-0.08553	1.73296	0.19196	-0.06241	1.76456	0.29194	0.10810	1.84535	0.32322	0.33190	1.93154	0.26867	0.32204	1.90169	0.03632	0.52496	1.81811	0.21622
354	5.900	-0.06027	1.70215	0.16454	-0.08839	1.66937	0.18665	-0.06825	1.60425	0.26974	0.10770	1.52271	0.25190	0.26064	1.54424	0.05950	0.31451	1.61991	-0.16185	0.53366	1.60220	0.21426	-0.08500	1.73331	0.19107	-0.06240	1.76508	0.29164	0.10855	1.84494	0.32310	0.33191	1.93115	0.26822	0.32220	1.90137	0.03647	0.52496	1.81811	0.21622
355	5.917	-0.06021	1.70239	0.16444	-0.08844	1.66958	0.18559	-0.06834	1.60428	0.26905	0.10762	1.52243	0.25106	0.26050	1.54500	0.05928	0.31475	1.62000	-0.16180	0.53366	1.60220	0.21426	-0.08451	1.73373	0.19011	-0.06230	1.76558	0.29149	0.10895	1.84458	0.32289	0.33186	1.93064	0.26793	0.32244	1.90117	0.03643	0.52496	1.81811	0.21622
356	5.933	-0.06011	1.70280	0.16445	-0.08847	1.66961	0.18437	-0.06837	1.60417	0.26796	0.10750	1.52210	0.25055	0.26035	1.54574	0.05913	0.31512	1.61990	-0.16145	0.53366	1.60220	0.21426	-0.08413	1.73420	0.18929	-0.06213	1.76604	0.29146	0.10909	1.84429	0.32265	0.33182	1.93014	0.26788	0.32273	1.90104	0.03613	0.52496	1.81811	0.21622
357	5.950	-0.05998	1.70324	0.16450	-0.08842	1.66949	0.18325	-0.06828	1.60393	0.26663	0.10730	1.52186	0.25041	0.26023	1.54630	0.05903	0.31555	1.61965	-0.16098	0.53366	1.60220	0.21426	-0.08388	1.73468	0.18870	-0.06193	1.76641	0.29150	0.10895	1.84403	0.32251	0.33186	1.92970	0.26808	0.32300	1.90095	0.03556	0.52496	1.81811	0.21622
358	5.967	-0.05980	1.70358	0.16454	-0.08833	1.66932	0.18241	-0.06811	1.60370	0.26529	0.10705	1.52182	0.25048	0.26017	1.54667	0.05888	0.31592	1.61938	-0.16062	0.53366	1.60220	0.21426	-0.08374	1.73509	0.18830	-0.06170	1.76670	0.29153	0.10867	1.84369	0.32250	0.33202	1.92931	0.26837	0.32313	1.90092	0.03483	0.52496	1.81811	0.21622
359	5.983	-0.05957	1.70381	0.16455	-0.08830	1.66921	0.18187	-0.06793	1.60360	0.26408	0.10688	1.52197	0.25062	0.26017	1.54691	0.05864	0.31616	1.61918	-0.16047	0.53366	1.60220	0.21426	-0.08368	1.73537	0.18804	-0.06150	1.76692	0.29150	0.10845	1.84333	0.32244	0.33232	1.92904	0.26859	0.32309	1.90098	0.03408	0.52496	1.81811	0.21622
360	6.000	-0.05929	1.70395	0.16454	-0.08838	1.66920	0.18158	-0.06775	1.60365	0.26299	0.10689	1.52227	0.25072	0.26022	1.54703	0.05832	0.31632	1.61901	-0.16053	0.53366	1.60220	0.21426	-0.08372	1.73543	0.18791	-0.06134	1.76713	0.29138	0.10837	1.84312	0.32205	0.33268	1.92892	0.26867	0.32289	1.90115	0.03346	0.52496	1.81811	0.21622
361	6.017	-0.05899	1.70401	0.16450	-0.08854	1.66922	0.18147	-0.06751	1.60382	0.26203	0.10700	1.52258	0.25076	0.26032	1.54702	0.05795	0.31652	1.61877	-0.16064	0.53366	1.60220	0.21426	-0.08382	1.73520	0.18786	-0.06127	1.76730	0.29116	0.10834	1.84319	0.32128	0.33304	1.92892	0.26870	0.32257	1.90139	0.03300	0.52496	1.81811	0.21622
362	6.033	-0.05873	1.70397	0.16436	-0.08869	1.66915	0.18148	-0.06713	1.60402	0.26137	0.10703	1.52278	0.25071	0.26047	1.54687	0.05753	0.31687	1.61838	-0.16067	0.53366	1.60220	0.21426	-0.08399	1.73465	0.18780	-0.06131	1.76738	0.29080	0.10822	1.84354	0.32030	0.33331	1.92898	0.26871	0.32217	1.90165	0.03274	0.52496	1.81811	0.21622
363	6.050	-0.05858	1.70380	0.16406	-0.08873	1.66887	0.18157	-0.06661	1.60419	0.26117	0.10686	1.52277	0.25060	0.26070	1.54667	0.05700	0.31734	1.61782	-0.16057	0.53366	1.60220	0.21426	-0.08417	1.73381	0.18764	-0.06142	1.76733	0.29026	0.10794	1.84404	0.31932	0.33342	1.92908	0.26868	0.32176	1.90187	0.03283	0.52496	1.81811	0.21622
364	6.067	-0.05855	1.70345	0.16351	-0.08860	1.66838	0.18164	-0.06603	1.60428	0.26139	0.10651	1.52254	0.25044	0.26101	1.54648	0.05634	0.31787	1.61723	-0.16040	0.53366	1.60220	0.21426	-0.08435	1.73287	0.18732	-0.06154	1.76711	0.28952	0.10753	1.84455	0.31846	0.33333	1.92925	0.26856	0.32143	1.90204	0.03348	0.52496	1.81811	0.21622
365	6.083	-0.05868	1.70289	0.16270	-0.08839	1.66776	0.18159	-0.06554	1.60433	0.26184	0.10614	1.52212	0.25025	0.26140	1.54630	0.05569	0.31839	1.61677	-0.16024	0.53366	1.60220	0.21426	-0.08457	1.73202	0.18680	-0.06160	1.76669	0.28862	0.10712	1.84496	0.31783	0.33303	1.92946	0.26831	0.32124	1.90216	0.03486	0.52496	1.81811	0.21622
366	6.100	-0.05892	1.70214	0.16165	-0.08817	1.66704	0.18139	-0.06523	1.60443	0.26254	0.10590	1.52157	0.25006	0.26191	1.54606	0.05527	0.31888	1.61652	-0.16013	0.53366	1.60220	0.21426	-0.08485	1.73135	0.18611	-0.06158	1.76608	0.28753	0.10679	1.84523	0.31759	0.33256	1.92972	0.26800	0.32125	1.90220	0.03691	0.52496	1.81811	0.21622
367	6.117	-0.05922	1.70126	0.16044	-0.08802	1.66628	0.18115	-0.06506	1.60465	0.26358	0.10585	1.52101	0.24994	0.26248	1.54567	0.05524	0.31936	1.61639	-0.16008	0.53366	1.60220	0.21426	-0.08518	1.73077	0.18533	-0.06155	1.76543	0.28628	0.10652	1.84538	0.31772	0.33201	1.93000	0.26771	0.32145	1.90220	0.03944	0.52496	1.81811	0.21622
368	6.133	-0.05950	1.70029	0.15922	-0.08796	1.66550	0.18093	-0.06493	1.60489	0.26491	0.10596	1.52055	0.24993	0.26300	1.54513	0.05562	0.31980	1.61620	-0.16013	0.53366	1.60220	0.21426	-0.08554	1.73013	0.18453	-0.06161	1.76491	0.28503	0.10628	1.84546	0.31809	0.33151	1.93032	0.26750	0.32179	1.90218	0.04211	0.52496	1.81811	0.21622
